<?xml version="1.0" encoding="UTF-8" standalone="no"?>
<!-- Generator: Adobe Illustrator 16.0.4, SVG Export Plug-In . SVG Version: 6.00 Build 0)  -->

<svg
   xmlns:dc="http://purl.org/dc/elements/1.1/"
   xmlns:cc="http://creativecommons.org/ns#"
   xmlns:rdf="http://www.w3.org/1999/02/22-rdf-syntax-ns#"
   xmlns:svg="http://www.w3.org/2000/svg"
   xmlns="http://www.w3.org/2000/svg"
   xmlns:sodipodi="http://sodipodi.sourceforge.net/DTD/sodipodi-0.dtd"
   xmlns:inkscape="http://www.inkscape.org/namespaces/inkscape"
   version="1.1"
   id="Capa_1"
   x="0px"
   y="0px"
   width="16px"
   height="16px"
   viewBox="0 0 16 16"
   enable-background="new 0 0 16 16"
   xml:space="preserve"
   inkscape:version="0.48.3.1 r9886"
   sodipodi:docname="social77.svg"><metadata
   id="metadata9"><rdf:RDF><cc:Work
       rdf:about=""><dc:format>image/svg+xml</dc:format><dc:type
         rdf:resource="http://purl.org/dc/dcmitype/StillImage" /><dc:title></dc:title></cc:Work></rdf:RDF></metadata><defs
   id="defs7" /><sodipodi:namedview
   pagecolor="#ffffff"
   bordercolor="#666666"
   borderopacity="1"
   objecttolerance="10"
   gridtolerance="10"
   guidetolerance="10"
   inkscape:pageopacity="0"
   inkscape:pageshadow="2"
   inkscape:window-width="1317"
   inkscape:window-height="744"
   id="namedview5"
   showgrid="false"
   inkscape:zoom="14.75"
   inkscape:cx="-2.0320301"
   inkscape:cy="4.4135004"
   inkscape:window-x="49"
   inkscape:window-y="24"
   inkscape:window-maximized="1"
   inkscape:current-layer="Capa_1" />
<path
   d="M 16,0 0,0 0,16 16,16 z M 8,5.208 c 1.542,0 2.792,1.25 2.792,2.792 0,1.542 -1.25,2.792 -2.792,2.792 C 6.458,10.792 5.208,9.542 5.208,8 5.208,6.458 6.458,5.208 8,5.208 z M 14,14 2,14 2,7 3.317,7 C 3.248,7.323 3.208,7.657 3.208,8 c 0,2.643 2.15,4.792 4.792,4.792 2.643,0 4.792,-2.149 4.792,-4.792 0,-0.343 -0.04,-0.677 -0.108,-1 L 14,7 z m 0,-9 -3,0 0,-3 3,0 z"
   id="path3"
   inkscape:connector-curvature="0"
   sodipodi:nodetypes="cccccsssssccccssscccccccc" />
</svg>