<?xml version="1.0" encoding="UTF-8" standalone="no"?>
<!-- Generator: Adobe Illustrator 16.0.4, SVG Export Plug-In . SVG Version: 6.00 Build 0)  -->

<svg
   xmlns:dc="http://purl.org/dc/elements/1.1/"
   xmlns:cc="http://creativecommons.org/ns#"
   xmlns:rdf="http://www.w3.org/1999/02/22-rdf-syntax-ns#"
   xmlns:svg="http://www.w3.org/2000/svg"
   xmlns="http://www.w3.org/2000/svg"
   xmlns:sodipodi="http://sodipodi.sourceforge.net/DTD/sodipodi-0.dtd"
   xmlns:inkscape="http://www.inkscape.org/namespaces/inkscape"
   version="1.1"
   id="Capa_1"
   x="0px"
   y="0px"
   width="16px"
   height="16px"
   viewBox="0 0 16 16"
   enable-background="new 0 0 16 16"
   xml:space="preserve"
   inkscape:version="0.48.3.1 r9886"
   sodipodi:docname="last.svg"><metadata
   id="metadata3040"><rdf:RDF><cc:Work
       rdf:about=""><dc:format>image/svg+xml</dc:format><dc:type
         rdf:resource="http://purl.org/dc/dcmitype/StillImage" /><dc:title></dc:title></cc:Work></rdf:RDF></metadata><defs
   id="defs3038" /><sodipodi:namedview
   pagecolor="#ffffff"
   bordercolor="#666666"
   borderopacity="1"
   objecttolerance="10"
   gridtolerance="10"
   guidetolerance="10"
   inkscape:pageopacity="0"
   inkscape:pageshadow="2"
   inkscape:window-width="1317"
   inkscape:window-height="744"
   id="namedview3036"
   showgrid="false"
   showguides="true"
   inkscape:guide-bbox="true"
   inkscape:zoom="29.5"
   inkscape:cx="10.484832"
   inkscape:cy="9.3383087"
   inkscape:window-x="49"
   inkscape:window-y="24"
   inkscape:window-maximized="1"
   inkscape:current-layer="Capa_1" />
<path
   d="m 0,0 0,16 16,0 0,-16 z m 4.5625,3.625 c 2.1137625,0 3.176418,0.7776491 3.84375,2.84375 L 8.9375,8.0625 c 0.3814823,1.1602733 1.0198196,2 2.625,2 1.080711,0 1.65625,-0.2557939 1.65625,-0.84375 0,-0.4609819 -0.251968,-0.7779778 -1.0625,-0.96875 L 11.0625,8 C 9.7436016,7.6821912 9.21875,6.9869922 9.21875,5.90625 c 0,-1.7323111 1.413484,-2.28125 2.84375,-2.28125 1.621131,0 2.591589,0.600953 2.71875,2.03125 L 13.1875,5.84375 C 13.12389,5.1603769 12.731561,4.875 11.96875,4.875 c -0.699351,0 -1.125,0.3346449 -1.125,0.875 0,0.476776 0.207083,0.7473144 0.90625,0.90625 l 1,0.21875 c 1.366841,0.3179332 2.09375,0.9939388 2.09375,2.28125 -9.4e-5,1.589231 -1.341694,2.1875 -3.3125,2.1875 -2.7494425,0 -3.6790736,-1.239773 -4.1875,-2.78125 L 6.8125,6.96875 C 6.4309856,5.8085401 5.9921792,4.90625 4.59375,4.90625 c -0.9696535,0 -1.9375,0.7014547 -1.9375,2.65625 0,1.525713 0.7782777,2.46875 1.875,2.46875 1.2394322,0 2.0625,-0.90625 2.0625,-0.90625 l 0.5,1.375 c 0,0 -0.860607,0.84375 -2.65625,0.84375 -2.2250353,-3e-5 -3.46875,-1.302942 -3.46875,-3.71875 0,-2.5110709 1.2575658,-4 3.59375,-4 z"
   id="path3034"
   inkscape:connector-curvature="0"
   sodipodi:nodetypes="cccccsccssccssccsscccsccssscccss" />
</svg>