<?xml version="1.0" encoding="UTF-8" standalone="no"?>
<!-- Generator: Adobe Illustrator 16.0.4, SVG Export Plug-In . SVG Version: 6.00 Build 0)  -->

<svg
   xmlns:dc="http://purl.org/dc/elements/1.1/"
   xmlns:cc="http://creativecommons.org/ns#"
   xmlns:rdf="http://www.w3.org/1999/02/22-rdf-syntax-ns#"
   xmlns:svg="http://www.w3.org/2000/svg"
   xmlns="http://www.w3.org/2000/svg"
   xmlns:sodipodi="http://sodipodi.sourceforge.net/DTD/sodipodi-0.dtd"
   xmlns:inkscape="http://www.inkscape.org/namespaces/inkscape"
   version="1.1"
   id="Capa_1"
   x="0px"
   y="0px"
   width="16px"
   height="16px"
   viewBox="0 0 16 16"
   enable-background="new 0 0 16 16"
   xml:space="preserve"
   inkscape:version="0.48.3.1 r9886"
   sodipodi:docname="inst.svg"><metadata
   id="metadata9"><rdf:RDF><cc:Work
       rdf:about=""><dc:format>image/svg+xml</dc:format><dc:type
         rdf:resource="http://purl.org/dc/dcmitype/StillImage" /><dc:title></dc:title></cc:Work></rdf:RDF></metadata><defs
   id="defs7" /><sodipodi:namedview
   pagecolor="#ffffff"
   bordercolor="#666666"
   borderopacity="1"
   objecttolerance="10"
   gridtolerance="10"
   guidetolerance="10"
   inkscape:pageopacity="0"
   inkscape:pageshadow="2"
   inkscape:window-width="1317"
   inkscape:window-height="744"
   id="namedview5"
   showgrid="false"
   inkscape:zoom="16"
   inkscape:cx="9.8679319"
   inkscape:cy="11.302038"
   inkscape:window-x="49"
   inkscape:window-y="24"
   inkscape:window-maximized="1"
   inkscape:current-layer="Capa_1" />

<path
   d="m 16,-7.0000002e-8 -16,0 C 0,-7.0000002e-8 3.12e-5,1.312881 3.12e-5,0 l 0,9.9999399 0.2499688,-0.99994 0.49999997,0 0.25,1 L 0.74999997,11 0.25,11 0,10.00006 0,16 c 2.0576644e-6,0.0968 0,0 0,0 l 16,0 c 1.466874,0 -10e-7,0 -10e-7,0 l 0,-5.98272 C 15.999999,11.11225 15.076843,12 13.937719,12 13.900939,12 8.2259688,11.997 8.2207188,11.997 8.0975625,11.9851 8.0000312,11.88403 8.0000312,11.76269 l 0,-6.2926901 c 0,-0.11553 0.040906,-0.17519 0.1965313,-0.23306 0.4005625,-0.14897 0.852125,-0.23694 1.3174687,-0.23694 1.9016878,0 3.4608128,1.40159 3.6249688,3.18841 0.245531,-0.099 0.51525,-0.154 0.797844,-0.154 1.139155,0 2.063155,0.88787 2.063155,1.9828101 L 15.999999,0 z M 2.75,12 2.25,12 2,9.9999999 l 0.25,-2 0.5,0 0.25,2 z m 2,0 -0.5,0 L 4,9.4570299 l 0.25,-2.45703 0.5,0 0.25,2.5 z m 2,0 -0.5,0 L 6,8.4965899 l 0.25,-3.49659 0.5,0 0.25,3.49659 z"
   id="path3-1"
   inkscape:connector-curvature="0"
   sodipodi:nodetypes="ccscccccccccsccscsscscscccccccccccccccccccccccc" /></svg>