<?xml version="1.0" encoding="UTF-8" standalone="no"?>
<!-- Generator: Adobe Illustrator 17.0.0, SVG Export Plug-In . SVG Version: 6.00 Build 0)  -->

<svg
   xmlns:dc="http://purl.org/dc/elements/1.1/"
   xmlns:cc="http://creativecommons.org/ns#"
   xmlns:rdf="http://www.w3.org/1999/02/22-rdf-syntax-ns#"
   xmlns:svg="http://www.w3.org/2000/svg"
   xmlns="http://www.w3.org/2000/svg"
   xmlns:sodipodi="http://sodipodi.sourceforge.net/DTD/sodipodi-0.dtd"
   xmlns:inkscape="http://www.inkscape.org/namespaces/inkscape"
   version="1.1"
   id="Capa_1"
   x="0px"
   y="0px"
   width="16px"
   height="16px"
   viewBox="0 0 16 16"
   enable-background="new 0 0 16 16"
   xml:space="preserve"
   inkscape:version="0.48.3.1 r9886"
   sodipodi:docname="you.svg"><metadata
   id="metadata9"><rdf:RDF><cc:Work
       rdf:about=""><dc:format>image/svg+xml</dc:format><dc:type
         rdf:resource="http://purl.org/dc/dcmitype/StillImage" /><dc:title /></cc:Work></rdf:RDF></metadata><defs
   id="defs7" /><sodipodi:namedview
   pagecolor="#ffffff"
   bordercolor="#666666"
   borderopacity="1"
   objecttolerance="10"
   gridtolerance="10"
   guidetolerance="10"
   inkscape:pageopacity="0"
   inkscape:pageshadow="2"
   inkscape:window-width="1317"
   inkscape:window-height="744"
   id="namedview5"
   showgrid="false"
   inkscape:zoom="22.627417"
   inkscape:cx="3.3351555"
   inkscape:cy="5.8921945"
   inkscape:window-x="49"
   inkscape:window-y="24"
   inkscape:window-maximized="1"
   inkscape:current-layer="Capa_1" />
<path
   d="m 16,-1.19e-6 -16,0 L 0,16 16,16 z m -6.7834137,2.70166479 0.7790033,0 0,2.4572627 c 0,0.4720415 0.014994,0.4579243 0.030875,0.5170398 0.01676,0.062645 0.07323,0.2099923 0.255844,0.2099923 0.19409,0 0.247905,-0.1552884 0.262903,-0.2214625 0.01235,-0.057351 0.02647,-0.045881 0.02647,-0.5382155 l 0,-2.4246168 0.77812,0 0,3.6880998 -0.788706,0 0.0097,-0.1861696 -0.239965,-0.099702 c -0.06087,0.1235248 -0.131452,0.2117569 -0.217909,0.2735193 -0.08734,0.06088 -0.1852683,0.091761 -0.3017219,0.091761 -0.1340979,0 -0.2434938,-0.029117 -0.3264225,-0.086468 C 9.4036159,6.3271187 9.3471561,6.2582977 9.3101024,6.1709479 9.2695233,6.0738927 9.2439387,5.9688965 9.2342349,5.865665 9.2227674,5.7465518 9.2165906,5.5003843 9.2165906,5.133339 l 0,-2.4316754 z m -2.706661,1.5334731 c 0,-0.3846917 0.032642,-0.6820338 0.094398,-0.8929084 C 6.6625499,3.1472355 6.76577,2.9937117 6.920159,2.8754808 7.0771948,2.7528382 7.2845173,2.6919581 7.5368331,2.6919581 c 0.2152625,0 0.3996471,0.042351 0.5505072,0.1217603 0.1464491,0.077644 0.2593737,0.179111 0.3361271,0.2982243 0.078518,0.1252895 0.1332157,0.253226 0.1623291,0.3820448 0.029995,0.1341127 0.044993,0.3511635 0.044993,0.6440939 l 0,0.649388 c 0,0.3811624 -0.014998,0.6590934 -0.042347,0.8302636 C 8.5619765,5.774786 8.5037497,5.9247805 8.4164096,6.0624225 8.3290696,6.1974175 8.2205561,6.2980021 8.0820471,6.3632938 7.9391269,6.4312325 7.7706222,6.4665253 7.5818265,6.4665253 7.366564,6.4665253 7.1839438,6.4365264 7.0374948,6.374764 6.9016323,6.3200601 6.79753,6.2406512 6.7251877,6.1338905 6.651081,6.0227181 6.5963831,5.8859584 6.5637408,5.7271407 6.528452,5.5559705 6.5108075,5.2895097 6.5108075,4.9339346 z M 4.6881342,1.3878884 5.3215705,3.4269311 C 5.4318485,2.8940095 5.6453464,2.1563896 5.8147333,1.3878884 l 0.5743274,0 -0.7393031,2.9090107 -0.00529,0.02294 0,2.0681597 -0.6731397,0 0,-2.0681593 -0.00529,-0.022058 L 4.113807,1.3878884 z M 13.857963,12.793646 c -0.100574,0.917614 -0.914866,1.669351 -1.827967,1.731113 -2.6890167,0.115584 -5.3700928,0.115584 -8.058227,0 -0.9139833,-0.06176 -1.7273931,-0.813499 -1.8288488,-1.731113 -0.099691,-1.452299 -0.099691,-2.8790125 0,-4.3295475 0.1005735,-0.9176129 0.9148655,-1.6675853 1.8288488,-1.7319947 2.6881342,-0.1147017 5.3692103,-0.1147017 8.058227,0 0.913983,0.064409 1.727393,0.8143818 1.827967,1.7319947 0.100573,1.450535 0.100573,2.8772485 0,4.3295475 z M 7.5703576,6.025365 c 0.1129246,0 0.2011469,-0.067939 0.2408469,-0.1852873 0.018527,-0.053822 0.040583,-0.1561707 0.040583,-0.434984 l 0,-1.5978824 c 0,-0.3229294 -0.018527,-0.4270432 -0.037936,-0.4861587 -0.0397,-0.1199955 -0.1270405,-0.1896989 -0.2408473,-0.1896989 -0.1120423,0 -0.2002646,0.067056 -0.2417291,0.1861697 -0.021173,0.057351 -0.042347,0.1641116 -0.042347,0.4896879 l 0,1.5537664 c 0,0.3052829 0.022056,0.410279 0.041464,0.4693945 0.040583,0.1235249 0.1279223,0.1949928 0.2399655,0.1949928 z m -4.3793562,2.7175475 0.6352007,0 0.126158,0 0,0.129701 0,4.1504365 0.7975298,0 0,-4.1504365 0,-0.129701 0.1252757,0 0.6378474,0 0,-0.811735 -2.3220116,0 z m 3.7715044,2.8190145 c 0,0.459689 -0.013234,0.573508 -0.02382,0.622036 -0.027349,0.119113 -0.122629,0.191463 -0.2567269,0.191463 -0.1279223,0 -0.2205558,-0.06882 -0.2505514,-0.18264 -0.013234,-0.04853 -0.027349,-0.162347 -0.027349,-0.599978 l 0,-2.4325585 -0.7551831,0 0,2.6504915 c 0,0.349399 0.00529,0.582332 0.01588,0.697033 0.010586,0.104997 0.037935,0.20911 0.080283,0.307048 0.037935,0.08823 0.09528,0.156171 0.1755624,0.208228 0.077636,0.05382 0.1808558,0.07941 0.3052493,0.07941 0.106749,0 0.1993824,-0.02735 0.2805469,-0.08294 0.083811,-0.05647 0.1570358,-0.146465 0.2170269,-0.265578 l 0.2390826,0.05823 -0.010587,0.215286 0.7657693,0 0,-3.8672085 -0.7543008,0 z M 10.302603,9.3561245 c -0.04147,-0.08206 -0.101456,-0.142935 -0.180856,-0.189698 -0.08204,-0.04676 -0.1826198,-0.06882 -0.2981917,-0.06882 -0.097044,0 -0.1843843,0.02382 -0.2681956,0.07588 -0.085571,0.0547 -0.1658575,0.134995 -0.2382005,0.247932 l -0.2302602,0.355573 0,-0.428807 0,-1.416125 -0.7551828,0 0,5.0918725 0.7128367,0 0.044106,-0.226756 0.061759,-0.315871 0.1676228,0.271754 c 0.074104,0.121761 0.1561535,0.210875 0.2426111,0.269991 0.082044,0.0547 0.1676227,0.08294 0.2611379,0.08294 0.1323334,0 0.2434943,-0.04676 0.3405393,-0.137642 0.101455,-0.09882 0.164093,-0.20911 0.191442,-0.343223 0.03,-0.14823 0.04499,-0.382927 0.04499,-0.367045 l 0,-2.021397 c 0,0.0088 0.03,-0.201169 -0.01499,-0.6185065 -0.008,-0.08735 -0.03529,-0.172935 -0.08117,-0.262052 z M 9.645347,11.599867 c 0,0.361751 -0.01853,0.472041 -0.033525,0.529392 -0.035289,0.124407 -0.1243931,0.196757 -0.2443756,0.196757 -0.1164536,0 -0.2055582,-0.06882 -0.2426119,-0.189699 -0.017644,-0.0547 -0.037052,-0.162347 -0.037052,-0.493217 l 0,-1.024374 c 0,-0.344105 0.017644,-0.447336 0.033525,-0.496746 0.034411,-0.11382 0.1243939,-0.1826415 0.2399649,-0.1826415 0.1191007,0 0.2090871,0.072351 0.2470226,0.1949935 0.016758,0.05382 0.038816,0.161465 0.038816,0.486159 l 0,0.980258 -0.00175,-8.82e-4 0,0 z m 2.06352,-0.393515 0.126158,0 1.177768,0 0,-0.419985 c 0,-0.38028 -0.03529,-0.8161465 -0.104985,-1.0199625 -0.06616,-0.196758 -0.178209,-0.348517 -0.343185,-0.465866 -0.159682,-0.112937 -0.369651,-0.172052 -0.62285,-0.172052 -0.205557,0 -0.389059,0.04765 -0.545213,0.143818 -0.156154,0.09617 -0.264667,0.231168 -0.333481,0.413808 -0.07234,0.189699 -0.110278,0.4596885 -0.110278,0.9387895 l 0,1.186721 c 0,0.152642 0.01764,0.378516 0.04941,0.526746 0.03176,0.142936 0.0891,0.275284 0.170269,0.394397 0.07675,0.112055 0.188796,0.202934 0.329951,0.269108 0.144685,0.06706 0.315836,0.101467 0.508161,0.101467 0.196736,0 0.36083,-0.03441 0.486105,-0.0997 0.125276,-0.06617 0.229378,-0.167641 0.312307,-0.301754 0.08646,-0.139407 0.142038,-0.272637 0.164976,-0.392633 0.0247,-0.126172 0.03705,-0.313224 0.03705,-0.556744 l 0,-0.180876 -0.70225,0 0,0.416456 c 0,0.22058 -0.01499,0.364398 -0.04588,0.450865 -0.04323,0.117349 -0.14292,0.18617 -0.272606,0.18617 -0.113808,0 -0.20203,-0.05647 -0.24173,-0.157935 -0.01941,-0.04765 -0.04147,-0.133231 -0.04147,-0.398809 l 0,-0.739385 0,-0.12176 0.0018,0 0,-8.82e-4 z m 0,-0.542627 0,-0.436749 c 0,-0.3211655 0.01676,-0.2726375 0.03087,-0.3158715 0.03353,-0.103231 0.124393,-0.164112 0.250552,-0.164112 0.112924,0 0.199382,0.06618 0.233789,0.179112 0.01412,0.04588 0.03176,0.0018 0.03176,0.3008715 l 0,0.436749 0,0.122642 -0.126157,0 -0.293781,0 -0.126158,0 z"
   id="path3"
   inkscape:connector-curvature="0"
   sodipodi:nodetypes="cccccccscscscccccccscccscccccscccsscccsccccccccccccccccccccccccccscsscscsscscccccccccccccccscsccscccsccccccccccsccccccccccccsccccccccscsscscscccccccsccsscsscccscccsccscscsccccccscscscccccc" />
</svg>